<?xml version="1.0" encoding="UTF-8" standalone="no"?>
<!DOCTYPE svg PUBLIC "-//W3C//DTD SVG 1.1//EN" "http://www.w3.org/Graphics/SVG/1.1/DTD/svg11.dtd">
<svg width="100%" height="100%" viewBox="0 0 375 500" version="1.1" xmlns="http://www.w3.org/2000/svg" xmlns:xlink="http://www.w3.org/1999/xlink" xml:space="preserve" xmlns:serif="http://www.serif.com/" style="fill-rule:evenodd;clip-rule:evenodd;stroke-linejoin:round;stroke-miterlimit:1.41421;">
    <g transform="matrix(4.16667,0,0,4.16667,0,0)">
        <g id="g5">
            <path id="rect7" d="M85,102C85,100.896 84.104,100 83,100L7,100C5.896,100 5,100.896 5,102L5,114C5,115.104 5.896,116 7,116L83,116C84.104,116 85,115.104 85,114L85,102Z" style="fill:rgb(188,186,173);"/>
            <g id="g9">
                <path id="rect11" d="M77,108.5C77,108.224 76.776,108 76.5,108L72.5,108C72.224,108 72,108.224 72,108.5L72,113.5C72,113.776 72.224,114 72.5,114L76.5,114C76.776,114 77,113.776 77,113.5L77,108.5Z" style="fill:rgb(150,149,140);"/>
                <path id="rect13" d="M76,109.5C76,109.224 75.776,109 75.5,109L73.5,109C73.224,109 73,109.224 73,109.5L73,112.5C73,112.776 73.224,113 73.5,113L75.5,113C75.776,113 76,112.776 76,112.5L76,109.5Z" style="fill:rgb(15,13,0);"/>
            </g>
        </g>
        <g id="g15">
            <g transform="matrix(1.11539,0,0,0.85539,1.63371,14.3971)">
                <circle cx="11.859" cy="106.883" r="2.5"/>
            </g>
            <g transform="matrix(0.866301,0,0,0.639362,4.58769,37.4867)">
                <circle cx="11.859" cy="106.883" r="2.5" style="fill:rgb(188,186,173);"/>
            </g>
            <g transform="matrix(1,0,0,1,0,-0.705)">
                <g transform="matrix(0.635769,0,0,0.475956,18.3088,55.5723)">
                    <path d="M51.691,106.045L50.267,106.045C50.267,106.045 50.267,108.008 50.267,108.92C50.267,109.041 50.303,109.157 50.367,109.242C50.431,109.328 50.518,109.376 50.608,109.376C50.833,109.376 51.125,109.376 51.35,109.376C51.44,109.376 51.527,109.328 51.591,109.242C51.655,109.157 51.691,109.041 51.691,108.92C51.691,108.008 51.691,106.045 51.691,106.045Z"/>
                </g>
                <g transform="matrix(0.635769,0,0,0.475956,19.525,55.5723)">
                    <path d="M51.691,106.045L50.267,106.045C50.267,106.045 50.267,108.008 50.267,108.92C50.267,109.041 50.303,109.157 50.367,109.242C50.431,109.328 50.518,109.376 50.608,109.376C50.833,109.376 51.125,109.376 51.35,109.376C51.44,109.376 51.527,109.328 51.591,109.242C51.655,109.157 51.691,109.041 51.691,108.92C51.691,108.008 51.691,106.045 51.691,106.045Z"/>
                </g>
                <g transform="matrix(0.635769,0,0,0.475956,20.7992,55.5723)">
                    <path d="M51.691,106.045L50.267,106.045C50.267,106.045 50.267,108.008 50.267,108.92C50.267,109.041 50.303,109.157 50.367,109.242C50.431,109.328 50.518,109.376 50.608,109.376C50.833,109.376 51.125,109.376 51.35,109.376C51.44,109.376 51.527,109.328 51.591,109.242C51.655,109.157 51.691,109.041 51.691,108.92C51.691,108.008 51.691,106.045 51.691,106.045Z"/>
                </g>
                <g transform="matrix(0.635769,0,0,0.475956,22.0154,55.5723)">
                    <path d="M51.691,106.045L50.267,106.045C50.267,106.045 50.267,108.008 50.267,108.92C50.267,109.041 50.303,109.157 50.367,109.242C50.431,109.328 50.518,109.376 50.608,109.376C50.833,109.376 51.125,109.376 51.35,109.376C51.44,109.376 51.527,109.328 51.591,109.242C51.655,109.157 51.691,109.041 51.691,108.92C51.691,108.008 51.691,106.045 51.691,106.045Z"/>
                </g>
                <g transform="matrix(0.635769,0,0,0.475956,23.2256,55.5723)">
                    <path d="M51.691,106.045L50.267,106.045C50.267,106.045 50.267,108.008 50.267,108.92C50.267,109.041 50.303,109.157 50.367,109.242C50.431,109.328 50.518,109.376 50.608,109.376C50.833,109.376 51.125,109.376 51.35,109.376C51.44,109.376 51.527,109.328 51.591,109.242C51.655,109.157 51.691,109.041 51.691,108.92C51.691,108.008 51.691,106.045 51.691,106.045Z"/>
                </g>
                <g transform="matrix(0.635769,0,0,0.475956,24.4418,55.5723)">
                    <path d="M51.691,106.045L50.267,106.045C50.267,106.045 50.267,108.008 50.267,108.92C50.267,109.041 50.303,109.157 50.367,109.242C50.431,109.328 50.518,109.376 50.608,109.376C50.833,109.376 51.125,109.376 51.35,109.376C51.44,109.376 51.527,109.328 51.591,109.242C51.655,109.157 51.691,109.041 51.691,108.92C51.691,108.008 51.691,106.045 51.691,106.045Z"/>
                </g>
                <g transform="matrix(0.635769,0,0,0.475956,25.716,55.5723)">
                    <path d="M51.691,106.045L50.267,106.045C50.267,106.045 50.267,108.008 50.267,108.92C50.267,109.041 50.303,109.157 50.367,109.242C50.431,109.328 50.518,109.376 50.608,109.376C50.833,109.376 51.125,109.376 51.35,109.376C51.44,109.376 51.527,109.328 51.591,109.242C51.655,109.157 51.691,109.041 51.691,108.92C51.691,108.008 51.691,106.045 51.691,106.045Z"/>
                </g>
                <g transform="matrix(0.635769,0,0,0.475956,26.9322,55.5723)">
                    <path d="M51.691,106.045L50.267,106.045C50.267,106.045 50.267,108.008 50.267,108.92C50.267,109.041 50.303,109.157 50.367,109.242C50.431,109.328 50.518,109.376 50.608,109.376C50.833,109.376 51.125,109.376 51.35,109.376C51.44,109.376 51.527,109.328 51.591,109.242C51.655,109.157 51.691,109.041 51.691,108.92C51.691,108.008 51.691,106.045 51.691,106.045Z"/>
                </g>
                <g transform="matrix(0.635769,0,0,0.475956,28.193,55.5723)">
                    <path d="M51.691,106.045L50.267,106.045C50.267,106.045 50.267,108.008 50.267,108.92C50.267,109.041 50.303,109.157 50.367,109.242C50.431,109.328 50.518,109.376 50.608,109.376C50.833,109.376 51.125,109.376 51.35,109.376C51.44,109.376 51.527,109.328 51.591,109.242C51.655,109.157 51.691,109.041 51.691,108.92C51.691,108.008 51.691,106.045 51.691,106.045Z"/>
                </g>
                <g transform="matrix(0.635769,0,0,0.475956,29.4092,55.5723)">
                    <path d="M51.691,106.045L50.267,106.045C50.267,106.045 50.267,108.008 50.267,108.92C50.267,109.041 50.303,109.157 50.367,109.242C50.431,109.328 50.518,109.376 50.608,109.376C50.833,109.376 51.125,109.376 51.35,109.376C51.44,109.376 51.527,109.328 51.591,109.242C51.655,109.157 51.691,109.041 51.691,108.92C51.691,108.008 51.691,106.045 51.691,106.045Z"/>
                </g>
                <g transform="matrix(0.635769,0,0,0.475956,30.6834,55.5723)">
                    <path d="M51.691,106.045L50.267,106.045C50.267,106.045 50.267,108.008 50.267,108.92C50.267,109.041 50.303,109.157 50.367,109.242C50.431,109.328 50.518,109.376 50.608,109.376C50.833,109.376 51.125,109.376 51.35,109.376C51.44,109.376 51.527,109.328 51.591,109.242C51.655,109.157 51.691,109.041 51.691,108.92C51.691,108.008 51.691,106.045 51.691,106.045Z"/>
                </g>
                <g transform="matrix(0.635769,0,0,0.475956,31.8996,55.5723)">
                    <path d="M51.691,106.045L50.267,106.045C50.267,106.045 50.267,108.008 50.267,108.92C50.267,109.041 50.303,109.157 50.367,109.242C50.431,109.328 50.518,109.376 50.608,109.376C50.833,109.376 51.125,109.376 51.35,109.376C51.44,109.376 51.527,109.328 51.591,109.242C51.655,109.157 51.691,109.041 51.691,108.92C51.691,108.008 51.691,106.045 51.691,106.045Z"/>
                </g>
                <g transform="matrix(0.635769,0,0,0.475956,33.1098,55.5723)">
                    <path d="M51.691,106.045L50.267,106.045C50.267,106.045 50.267,108.008 50.267,108.92C50.267,109.041 50.303,109.157 50.367,109.242C50.431,109.328 50.518,109.376 50.608,109.376C50.833,109.376 51.125,109.376 51.35,109.376C51.44,109.376 51.527,109.328 51.591,109.242C51.655,109.157 51.691,109.041 51.691,108.92C51.691,108.008 51.691,106.045 51.691,106.045Z"/>
                </g>
                <g transform="matrix(0.635769,0,0,0.475956,34.326,55.5723)">
                    <path d="M51.691,106.045L50.267,106.045C50.267,106.045 50.267,108.008 50.267,108.92C50.267,109.041 50.303,109.157 50.367,109.242C50.431,109.328 50.518,109.376 50.608,109.376C50.833,109.376 51.125,109.376 51.35,109.376C51.44,109.376 51.527,109.328 51.591,109.242C51.655,109.157 51.691,109.041 51.691,108.92C51.691,108.008 51.691,106.045 51.691,106.045Z"/>
                </g>
                <g transform="matrix(0.635769,0,0,0.475956,35.6002,55.5723)">
                    <path d="M51.691,106.045L50.267,106.045C50.267,106.045 50.267,108.008 50.267,108.92C50.267,109.041 50.303,109.157 50.367,109.242C50.431,109.328 50.518,109.376 50.608,109.376C50.833,109.376 51.125,109.376 51.35,109.376C51.44,109.376 51.527,109.328 51.591,109.242C51.655,109.157 51.691,109.041 51.691,108.92C51.691,108.008 51.691,106.045 51.691,106.045Z"/>
                </g>
                <g transform="matrix(0.635769,0,0,0.475956,36.8164,55.5723)">
                    <path d="M51.691,106.045L50.267,106.045C50.267,106.045 50.267,108.008 50.267,108.92C50.267,109.041 50.303,109.157 50.367,109.242C50.431,109.328 50.518,109.376 50.608,109.376C50.833,109.376 51.125,109.376 51.35,109.376C51.44,109.376 51.527,109.328 51.591,109.242C51.655,109.157 51.691,109.041 51.691,108.92C51.691,108.008 51.691,106.045 51.691,106.045Z"/>
                </g>
                <g transform="matrix(0.635769,0,0,0.475956,44.0318,55.5723)">
                    <path d="M51.691,106.045L50.267,106.045C50.267,106.045 50.267,108.008 50.267,108.92C50.267,109.041 50.303,109.157 50.367,109.242C50.431,109.328 50.518,109.376 50.608,109.376C50.833,109.376 51.125,109.376 51.35,109.376C51.44,109.376 51.527,109.328 51.591,109.242C51.655,109.157 51.691,109.041 51.691,108.92C51.691,108.008 51.691,106.045 51.691,106.045Z"/>
                </g>
                <g transform="matrix(0.635769,0,0,0.475956,45.2421,55.5723)">
                    <path d="M51.691,106.045L50.267,106.045C50.267,106.045 50.267,108.008 50.267,108.92C50.267,109.041 50.303,109.157 50.367,109.242C50.431,109.328 50.518,109.376 50.608,109.376C50.833,109.376 51.125,109.376 51.35,109.376C51.44,109.376 51.527,109.328 51.591,109.242C51.655,109.157 51.691,109.041 51.691,108.92C51.691,108.008 51.691,106.045 51.691,106.045Z"/>
                </g>
                <g transform="matrix(0.635769,0,0,0.475956,46.4582,55.5723)">
                    <path d="M51.691,106.045L50.267,106.045C50.267,106.045 50.267,108.008 50.267,108.92C50.267,109.041 50.303,109.157 50.367,109.242C50.431,109.328 50.518,109.376 50.608,109.376C50.833,109.376 51.125,109.376 51.35,109.376C51.44,109.376 51.527,109.328 51.591,109.242C51.655,109.157 51.691,109.041 51.691,108.92C51.691,108.008 51.691,106.045 51.691,106.045Z"/>
                </g>
                <g transform="matrix(0.635769,0,0,0.475956,47.7325,55.5723)">
                    <path d="M51.691,106.045L50.267,106.045C50.267,106.045 50.267,108.008 50.267,108.92C50.267,109.041 50.303,109.157 50.367,109.242C50.431,109.328 50.518,109.376 50.608,109.376C50.833,109.376 51.125,109.376 51.35,109.376C51.44,109.376 51.527,109.328 51.591,109.242C51.655,109.157 51.691,109.041 51.691,108.92C51.691,108.008 51.691,106.045 51.691,106.045Z"/>
                </g>
                <g transform="matrix(0.635769,0,0,0.475956,48.9486,55.5723)">
                    <path d="M51.691,106.045L50.267,106.045C50.267,106.045 50.267,108.008 50.267,108.92C50.267,109.041 50.303,109.157 50.367,109.242C50.431,109.328 50.518,109.376 50.608,109.376C50.833,109.376 51.125,109.376 51.35,109.376C51.44,109.376 51.527,109.328 51.591,109.242C51.655,109.157 51.691,109.041 51.691,108.92C51.691,108.008 51.691,106.045 51.691,106.045Z"/>
                </g>
                <g transform="matrix(0.635769,0,0,0.475956,39.3459,55.5723)">
                    <path d="M51.691,106.045L50.267,106.045C50.267,106.045 50.267,108.008 50.267,108.92C50.267,109.041 50.303,109.157 50.367,109.242C50.431,109.328 50.518,109.376 50.608,109.376C50.833,109.376 51.125,109.376 51.35,109.376C51.44,109.376 51.527,109.328 51.591,109.242C51.655,109.157 51.691,109.041 51.691,108.92C51.691,108.008 51.691,106.045 51.691,106.045Z"/>
                </g>
                <g transform="matrix(0.635769,0,0,0.475956,40.6201,55.5723)">
                    <path d="M51.691,106.045L50.267,106.045C50.267,106.045 50.267,108.008 50.267,108.92C50.267,109.041 50.303,109.157 50.367,109.242C50.431,109.328 50.518,109.376 50.608,109.376C50.833,109.376 51.125,109.376 51.35,109.376C51.44,109.376 51.527,109.328 51.591,109.242C51.655,109.157 51.691,109.041 51.691,108.92C51.691,108.008 51.691,106.045 51.691,106.045Z"/>
                </g>
                <g transform="matrix(0.635769,0,0,0.475956,41.8363,55.5723)">
                    <path d="M51.691,106.045L50.267,106.045C50.267,106.045 50.267,108.008 50.267,108.92C50.267,109.041 50.303,109.157 50.367,109.242C50.431,109.328 50.518,109.376 50.608,109.376C50.833,109.376 51.125,109.376 51.35,109.376C51.44,109.376 51.527,109.328 51.591,109.242C51.655,109.157 51.691,109.041 51.691,108.92C51.691,108.008 51.691,106.045 51.691,106.045Z"/>
                </g>
            </g>
            <path id="rect17" d="M87,5C87,3.896 86.104,3 85,3L5,3C3.896,3 3,3.896 3,5L3,104C3,105.104 3.896,106 5,106L85,106C86.104,106 87,105.104 87,104L87,5Z" style="fill:rgb(181,179,165);"/>
            <g id="rect19" transform="matrix(1,0,0,1,3.55271e-15,0.37929)">
                <path d="M85,9C85,8.448 84.552,8 84,8L6,8C5.448,8 5,8.448 5,9L5,101C5,101.552 5.448,102 6,102L84,102C84.552,102 85,101.552 85,101L85,9Z" style="fill:rgb(212,210,196);"/>
            </g>
        </g>
        <g id="g21">
            <g id="g23">
                <path id="rect25" d="M80,82.5C80,82.224 79.776,82 79.5,82L66.5,82C66.224,82 66,82.224 66,82.5L66,89.5C66,89.776 66.224,90 66.5,90L79.5,90C79.776,90 80,89.776 80,89.5L80,82.5Z" style="fill:rgb(194,191,173);"/>
                <path id="rect27" d="M75,84.5C75,84.224 74.776,84 74.5,84L43.5,84C43.224,84 43,84.224 43,84.5L43,87.5C43,87.776 43.224,88 43.5,88L74.5,88C74.776,88 75,87.776 75,87.5L75,84.5Z" style="fill:rgb(194,191,173);"/>
            </g>
            <circle id="circle29" cx="79" cy="88" r="0.3"/>
            <path id="rect31" d="M78,83.5C78,83.224 77.776,83 77.5,83L68.5,83C68.224,83 68,83.224 68,83.5L68,88.5C68,88.776 68.224,89 68.5,89L77.5,89C77.776,89 78,88.776 78,88.5L78,83.5Z" style="fill:rgb(172,168,151);"/>
            <g id="g33">
                <path id="rect35" d="M77,85.5C77,85.224 76.776,85 76.5,85L45.5,85C45.224,85 45,85.224 45,85.5L45,86.5C45,86.776 45.224,87 45.5,87L76.5,87C76.776,87 77,86.776 77,86.5L77,85.5Z" style="fill:rgb(15,13,0);"/>
                <path id="rect37" d="M78,84.5C78,84.224 77.776,84 77.5,84L68.5,84C68.224,84 68,84.224 68,84.5L68,87.5C68,87.776 68.224,88 68.5,88L77.5,88C77.776,88 78,87.776 78,87.5L78,84.5Z" style="fill:rgb(15,13,0);"/>
            </g>
        </g>
        <g id="g39">
            <path id="rect41" d="M80,16C80,14.896 79.104,14 78,14L12,14C10.896,14 10,14.896 10,16L10,67C10,68.104 10.896,69 12,69L78,69C79.104,69 80,68.104 80,67L80,16Z" style="fill:rgb(179,172,162);"/>
            <path id="path43" d="M16,17C30,15 60,15 74,17C75,17 77,19 77,20C78,30 78,53 77,63C77,64 75,66 74,66C60,68 30,68 16,66C15,66 13,64 13,63C12,53 12,30 13,20C13,19 15,17 16,17" style="fill-rule:nonzero;"/>
        </g>
        <g id="Logo" transform="matrix(0.0923155,0,0,0.0923155,16.2781,84.297)">
            <g id="Modern-Slide" serif:id="Modern Slide" transform="matrix(10.8324,0,0,10.8324,-159.151,-827.196)">
                <path d="M14.624,78.677C14.654,78.656 14.708,78.642 14.788,78.633C14.849,78.63 14.886,78.624 14.897,78.617C14.905,78.611 14.911,78.603 14.915,78.595C14.93,78.559 14.94,78.46 14.947,78.3C14.956,78.092 14.97,77.815 14.99,77.47C15.005,77.206 15.013,77.041 15.013,76.976L15.013,76.938C14.943,76.923 14.832,76.908 14.679,76.891C14.669,76.876 14.665,76.865 14.665,76.857C14.665,76.853 14.668,76.844 14.675,76.831C14.691,76.825 14.704,76.822 14.713,76.822C14.721,76.822 14.738,76.824 14.764,76.828C14.812,76.835 14.878,76.838 14.962,76.838C14.989,76.838 15.036,76.836 15.103,76.832C15.149,76.83 15.176,76.828 15.182,76.828C15.197,76.828 15.215,76.831 15.236,76.835C15.246,76.845 15.253,76.854 15.258,76.863L15.319,77.001L15.734,77.918L15.905,78.303C16.041,78.035 16.146,77.796 16.222,77.587C16.227,77.571 16.232,77.557 16.239,77.544C16.248,77.528 16.256,77.509 16.264,77.489C16.272,77.468 16.304,77.39 16.359,77.254C16.382,77.2 16.4,77.153 16.414,77.114C16.469,76.957 16.502,76.868 16.512,76.846C16.53,76.839 16.546,76.835 16.56,76.835C16.576,76.835 16.596,76.836 16.62,76.838C16.675,76.841 16.764,76.843 16.887,76.843C16.963,76.843 17.025,76.842 17.074,76.84C17.076,76.851 17.077,76.858 17.077,76.863C17.077,76.87 17.076,76.879 17.073,76.891C17.041,76.908 17.004,76.917 16.96,76.919C16.873,76.924 16.818,76.931 16.794,76.939C16.771,76.948 16.756,76.959 16.75,76.973C16.743,76.987 16.738,77.032 16.733,77.108L16.734,77.175L16.733,77.246C16.733,77.392 16.737,77.638 16.745,77.984L16.743,78.271L16.745,78.456C16.745,78.528 16.748,78.571 16.755,78.584C16.762,78.597 16.781,78.609 16.813,78.621C16.866,78.639 16.952,78.657 17.071,78.675C17.078,78.68 17.082,78.686 17.082,78.694C17.082,78.703 17.081,78.713 17.08,78.724L17.013,78.724C16.955,78.724 16.893,78.722 16.825,78.718C16.758,78.715 16.722,78.713 16.717,78.713C16.517,78.713 16.384,78.715 16.318,78.719C16.278,78.722 16.253,78.724 16.242,78.724C16.235,78.724 16.228,78.722 16.22,78.718L16.22,78.699C16.22,78.69 16.222,78.681 16.225,78.671C16.257,78.657 16.301,78.648 16.356,78.643C16.418,78.626 16.463,78.609 16.491,78.59C16.5,78.553 16.504,78.478 16.504,78.363L16.5,78.067C16.5,78.035 16.502,77.975 16.505,77.887C16.509,77.799 16.51,77.656 16.51,77.458C16.51,77.301 16.506,77.182 16.499,77.101C16.482,77.135 16.449,77.209 16.4,77.323L16.378,77.379L16.375,77.388L16.159,77.9L16.081,78.098L15.98,78.338C15.936,78.449 15.898,78.546 15.867,78.631C15.853,78.67 15.842,78.701 15.833,78.724L15.8,78.722C15.689,78.4 15.558,78.069 15.405,77.73C15.252,77.392 15.145,77.168 15.083,77.06C15.076,77.102 15.067,77.224 15.057,77.426C15.044,77.672 15.038,77.943 15.038,78.239C15.038,78.332 15.045,78.436 15.059,78.552C15.062,78.585 15.077,78.61 15.101,78.626C15.125,78.642 15.188,78.651 15.29,78.653C15.329,78.653 15.366,78.656 15.401,78.662C15.408,78.677 15.412,78.687 15.412,78.694C15.412,78.699 15.409,78.707 15.404,78.719L14.949,78.703C14.915,78.703 14.864,78.706 14.793,78.71C14.754,78.713 14.698,78.715 14.625,78.716L14.624,78.677Z" style="fill:rgb(60,60,60);fill-rule:nonzero;"/>
                <path d="M17.06,78.122C17.06,78.055 17.074,77.984 17.102,77.908C17.13,77.833 17.172,77.765 17.229,77.705C17.286,77.645 17.346,77.6 17.409,77.571C17.498,77.53 17.606,77.509 17.734,77.509C17.917,77.509 18.069,77.572 18.192,77.697C18.315,77.822 18.376,77.972 18.376,78.148C18.376,78.304 18.312,78.444 18.183,78.566C18.055,78.689 17.892,78.75 17.696,78.75C17.575,78.75 17.461,78.718 17.353,78.655C17.273,78.607 17.204,78.536 17.147,78.442C17.089,78.349 17.06,78.242 17.06,78.122ZM17.708,78.693C17.782,78.693 17.854,78.673 17.922,78.633C17.991,78.593 18.046,78.529 18.087,78.44C18.128,78.352 18.149,78.249 18.149,78.133C18.149,78.057 18.133,77.969 18.101,77.868C18.069,77.768 18.021,77.692 17.955,77.642C17.889,77.592 17.811,77.566 17.723,77.566C17.658,77.566 17.592,77.582 17.526,77.612C17.459,77.642 17.402,77.7 17.356,77.786C17.309,77.872 17.286,77.994 17.286,78.152C17.286,78.33 17.326,78.465 17.407,78.556C17.487,78.647 17.588,78.693 17.708,78.693Z" style="fill:rgb(60,60,60);fill-rule:nonzero;"/>
                <path d="M19.404,77.647L19.405,77.604L19.404,77.433L19.405,77.109C19.405,77.019 19.395,76.962 19.376,76.938C19.356,76.914 19.299,76.889 19.204,76.863C19.198,76.861 19.187,76.858 19.172,76.854L19.172,76.838C19.172,76.829 19.173,76.818 19.175,76.806C19.308,76.792 19.422,76.769 19.518,76.737L19.593,76.736C19.596,76.802 19.598,76.876 19.598,76.958L19.593,77.522L19.603,78.158L19.598,78.497C19.598,78.566 19.603,78.605 19.613,78.614C19.633,78.633 19.676,78.644 19.742,78.644C19.756,78.644 19.774,78.645 19.798,78.647L19.798,78.674C19.798,78.681 19.797,78.688 19.796,78.696C19.766,78.703 19.735,78.709 19.702,78.715L19.49,78.756C19.459,78.762 19.434,78.765 19.415,78.765L19.415,78.624C19.399,78.629 19.373,78.639 19.338,78.653C19.185,78.718 19.045,78.75 18.917,78.75C18.84,78.75 18.761,78.725 18.681,78.675C18.601,78.624 18.54,78.554 18.497,78.464C18.454,78.374 18.432,78.283 18.432,78.189C18.432,78.105 18.447,78.025 18.475,77.948C18.503,77.871 18.54,77.808 18.586,77.757C18.615,77.724 18.657,77.691 18.711,77.658C18.764,77.625 18.809,77.604 18.844,77.596C18.931,77.573 18.989,77.562 19.018,77.562C19.15,77.562 19.259,77.582 19.344,77.621C19.37,77.633 19.39,77.642 19.404,77.647ZM19.405,78.552C19.409,78.487 19.411,78.352 19.411,78.148C19.411,77.975 19.403,77.866 19.387,77.821C19.371,77.775 19.33,77.732 19.266,77.692C19.201,77.651 19.129,77.631 19.049,77.631C18.937,77.631 18.842,77.674 18.763,77.761C18.685,77.848 18.646,77.977 18.646,78.146C18.646,78.296 18.688,78.415 18.773,78.504C18.857,78.593 18.963,78.637 19.089,78.637C19.161,78.637 19.227,78.627 19.286,78.608C19.346,78.588 19.386,78.57 19.405,78.552Z" style="fill:rgb(60,60,60);fill-rule:nonzero;"/>
                <path d="M20.844,77.937L20.257,77.941L20.146,77.941C20.101,77.941 20.055,77.943 20.008,77.947C19.999,77.977 19.995,77.997 19.995,78.007L19.996,78.022L19.996,78.037L19.995,78.108C19.995,78.168 20.014,78.241 20.051,78.327C20.089,78.414 20.143,78.48 20.212,78.525C20.282,78.571 20.369,78.595 20.474,78.598C20.529,78.595 20.574,78.588 20.607,78.577C20.64,78.566 20.687,78.541 20.748,78.502L20.853,78.416L20.862,78.475C20.862,78.481 20.861,78.489 20.861,78.497C20.817,78.552 20.761,78.601 20.694,78.643C20.626,78.685 20.558,78.716 20.488,78.735C20.455,78.744 20.401,78.748 20.324,78.748C20.255,78.748 20.187,78.734 20.119,78.706C20.02,78.663 19.941,78.594 19.884,78.499C19.827,78.404 19.799,78.288 19.799,78.152C19.799,78.109 19.807,78.054 19.823,77.987C19.839,77.919 19.868,77.848 19.91,77.771C19.938,77.72 19.973,77.677 20.014,77.644C20.072,77.597 20.124,77.564 20.168,77.546C20.231,77.519 20.305,77.506 20.389,77.506C20.48,77.506 20.554,77.523 20.611,77.556C20.69,77.6 20.748,77.657 20.787,77.726C20.825,77.795 20.844,77.859 20.844,77.916L20.844,77.937ZM20.027,77.884L20.096,77.884C20.146,77.884 20.294,77.876 20.541,77.861C20.58,77.859 20.604,77.855 20.613,77.849C20.631,77.831 20.639,77.814 20.639,77.799C20.639,77.769 20.63,77.735 20.61,77.696C20.59,77.657 20.56,77.628 20.52,77.607C20.479,77.586 20.432,77.575 20.379,77.575C20.265,77.575 20.174,77.618 20.106,77.703C20.053,77.767 20.027,77.828 20.027,77.884Z" style="fill:rgb(60,60,60);fill-rule:nonzero;"/>
                <path d="M20.844,78.715L20.838,78.696C20.838,78.689 20.842,78.679 20.851,78.665L20.938,78.647L21.059,78.625C21.069,78.621 21.076,78.614 21.08,78.605C21.086,78.592 21.088,78.555 21.088,78.492C21.088,78.16 21.086,77.968 21.083,77.917C21.079,77.866 21.07,77.833 21.056,77.82C21.043,77.806 21.007,77.795 20.951,77.788C20.918,77.783 20.891,77.776 20.872,77.769L20.878,77.725C20.98,77.683 21.049,77.646 21.084,77.616C21.133,77.572 21.174,77.515 21.209,77.443L21.258,77.445C21.264,77.494 21.267,77.602 21.267,77.77L21.266,77.795C21.266,77.801 21.267,77.81 21.269,77.823C21.306,77.755 21.352,77.693 21.408,77.637L21.441,77.603C21.455,77.587 21.468,77.575 21.481,77.566C21.549,77.525 21.6,77.505 21.633,77.505C21.676,77.505 21.711,77.519 21.739,77.548C21.766,77.577 21.78,77.612 21.78,77.654C21.78,77.687 21.77,77.713 21.751,77.732C21.724,77.756 21.694,77.769 21.66,77.769C21.644,77.769 21.613,77.76 21.567,77.744C21.522,77.727 21.491,77.719 21.477,77.719C21.449,77.719 21.43,77.723 21.42,77.732C21.392,77.753 21.359,77.797 21.32,77.864C21.29,77.914 21.274,77.959 21.274,78.001L21.282,78.243L21.285,78.533C21.288,78.566 21.292,78.588 21.296,78.598C21.3,78.604 21.31,78.613 21.326,78.623C21.431,78.631 21.494,78.638 21.513,78.642C21.527,78.643 21.537,78.644 21.544,78.644C21.586,78.645 21.615,78.651 21.632,78.662C21.641,78.667 21.645,78.674 21.645,78.684C21.645,78.69 21.641,78.698 21.633,78.707L21.471,78.706L21.409,78.705L21.32,78.706L21.17,78.706L21.09,78.71L20.844,78.715Z" style="fill:rgb(60,60,60);fill-rule:nonzero;"/>
                <path d="M21.75,78.664C21.774,78.657 21.803,78.651 21.835,78.646C21.896,78.637 21.933,78.627 21.946,78.615C21.958,78.603 21.964,78.577 21.964,78.535L21.967,78.482C21.968,78.462 21.968,78.437 21.968,78.407L21.965,77.957C21.965,77.897 21.957,77.858 21.942,77.84C21.915,77.813 21.867,77.794 21.795,77.783L21.795,77.73C21.867,77.711 21.921,77.686 21.959,77.654C22.015,77.61 22.062,77.551 22.1,77.476L22.15,77.477C22.153,77.523 22.154,77.556 22.154,77.575L22.154,77.672L22.156,77.698C22.167,77.69 22.181,77.681 22.197,77.669C22.255,77.625 22.315,77.589 22.377,77.561C22.438,77.533 22.493,77.514 22.541,77.503C22.571,77.496 22.605,77.492 22.644,77.492C22.724,77.492 22.792,77.513 22.85,77.556C22.908,77.599 22.945,77.65 22.962,77.708C22.979,77.766 22.988,77.881 22.988,78.054L22.988,78.275C22.988,78.281 22.987,78.301 22.986,78.334C22.984,78.367 22.983,78.405 22.983,78.448C22.983,78.517 22.986,78.56 22.992,78.579C22.997,78.591 23.01,78.604 23.03,78.617C23.124,78.629 23.179,78.644 23.194,78.662L23.194,78.674C23.194,78.684 23.191,78.696 23.186,78.71L23.158,78.71L22.964,78.709L22.774,78.712C22.704,78.714 22.639,78.713 22.579,78.71L22.57,78.68C22.57,78.674 22.574,78.666 22.581,78.656C22.607,78.644 22.644,78.637 22.692,78.633C22.72,78.631 22.74,78.628 22.75,78.624C22.761,78.62 22.774,78.612 22.79,78.601C22.802,78.577 22.808,78.558 22.808,78.542C22.808,78.535 22.807,78.521 22.805,78.501C22.802,78.456 22.8,78.344 22.799,78.165L22.799,78.089L22.802,77.972C22.802,77.846 22.776,77.759 22.726,77.711C22.675,77.664 22.607,77.64 22.522,77.64C22.457,77.64 22.393,77.654 22.33,77.683C22.268,77.712 22.207,77.755 22.148,77.812C22.146,77.859 22.145,77.899 22.145,77.933L22.15,78.256C22.15,78.425 22.152,78.529 22.157,78.567C22.159,78.582 22.163,78.593 22.167,78.599C22.175,78.607 22.191,78.613 22.214,78.618C22.238,78.623 22.265,78.63 22.296,78.639C22.326,78.647 22.347,78.653 22.356,78.655C22.376,78.66 22.389,78.669 22.396,78.684L22.395,78.713L22.241,78.713L21.924,78.709C21.851,78.711 21.805,78.712 21.785,78.712L21.749,78.712L21.746,78.693C21.746,78.686 21.747,78.676 21.75,78.664Z" style="fill:rgb(60,60,60);fill-rule:nonzero;"/>
                <path d="M24.84,76.903C24.847,76.967 24.851,77.004 24.851,77.014L24.845,77.144C24.844,77.2 24.841,77.236 24.838,77.251C24.829,77.255 24.822,77.257 24.816,77.257L24.803,77.254C24.772,77.118 24.719,77.018 24.644,76.956C24.569,76.893 24.478,76.862 24.371,76.862C24.26,76.862 24.168,76.893 24.097,76.956C24.026,77.018 23.99,77.091 23.99,77.174C23.99,77.237 24.015,77.295 24.065,77.348C24.115,77.401 24.242,77.48 24.447,77.585C24.603,77.666 24.715,77.733 24.782,77.784C24.85,77.835 24.901,77.894 24.935,77.962C24.969,78.029 24.986,78.104 24.986,78.187C24.986,78.292 24.959,78.39 24.905,78.482C24.851,78.574 24.778,78.643 24.686,78.689C24.594,78.736 24.472,78.759 24.321,78.759C24.189,78.759 24.063,78.738 23.942,78.696C23.87,78.67 23.827,78.65 23.811,78.634C23.796,78.619 23.788,78.602 23.788,78.584C23.788,78.574 23.789,78.56 23.791,78.543C23.804,78.428 23.812,78.333 23.813,78.259C23.815,78.213 23.818,78.186 23.823,78.179C23.827,78.172 23.834,78.168 23.845,78.168C23.854,78.168 23.861,78.172 23.866,78.178C23.872,78.184 23.875,78.196 23.877,78.214C23.888,78.334 23.944,78.441 24.044,78.536C24.144,78.631 24.257,78.678 24.383,78.678C24.46,78.678 24.531,78.662 24.596,78.63C24.661,78.598 24.711,78.551 24.748,78.49C24.785,78.429 24.803,78.37 24.803,78.312C24.803,78.233 24.775,78.161 24.72,78.095C24.664,78.03 24.552,77.953 24.384,77.866C24.216,77.779 24.107,77.715 24.056,77.675C23.974,77.609 23.912,77.54 23.871,77.467C23.841,77.41 23.826,77.344 23.826,77.269C23.826,77.133 23.88,77.018 23.987,76.924C24.095,76.83 24.239,76.783 24.419,76.783C24.519,76.783 24.605,76.794 24.677,76.816C24.73,76.834 24.784,76.863 24.84,76.903Z" style="fill:rgb(60,60,60);fill-rule:nonzero;"/>
                <path d="M25.038,76.895L25.038,76.863C25.066,76.854 25.096,76.845 25.129,76.835C25.178,76.82 25.25,76.796 25.346,76.764L25.415,76.764C25.416,76.811 25.416,76.837 25.416,76.844C25.416,77.646 25.414,78.124 25.409,78.278C25.406,78.369 25.404,78.417 25.404,78.423C25.404,78.533 25.409,78.594 25.418,78.606C25.429,78.624 25.465,78.636 25.525,78.643C25.585,78.65 25.621,78.657 25.632,78.664C25.639,78.667 25.643,78.674 25.643,78.684C25.643,78.695 25.641,78.702 25.637,78.707C25.632,78.711 25.624,78.713 25.612,78.713C25.606,78.713 25.554,78.712 25.459,78.709L25.267,78.703L25.021,78.713C25.005,78.714 24.993,78.711 24.986,78.705C24.98,78.7 24.977,78.693 24.977,78.684C24.977,78.674 24.98,78.667 24.986,78.663C24.993,78.658 25.028,78.651 25.092,78.64C25.156,78.629 25.192,78.62 25.202,78.613C25.211,78.606 25.217,78.589 25.22,78.564C25.224,78.529 25.226,78.43 25.226,78.267L25.224,77.93L25.229,77.581L25.227,77.232L25.232,77.061C25.232,77.027 25.226,77.002 25.215,76.987C25.205,76.972 25.182,76.957 25.147,76.942C25.094,76.921 25.058,76.905 25.038,76.895Z" style="fill:rgb(60,60,60);fill-rule:nonzero;"/>
                <path d="M25.707,76.91C25.707,76.878 25.72,76.85 25.744,76.827C25.769,76.803 25.799,76.791 25.835,76.791C25.871,76.791 25.902,76.805 25.93,76.831C25.957,76.857 25.971,76.886 25.971,76.916C25.971,76.946 25.957,76.975 25.93,77.002C25.902,77.029 25.871,77.042 25.835,77.042C25.798,77.042 25.768,77.03 25.744,77.005C25.719,76.981 25.707,76.949 25.707,76.91ZM25.584,77.669L25.586,77.626C25.649,77.608 25.683,77.597 25.688,77.594C25.723,77.579 25.76,77.555 25.799,77.522C25.837,77.49 25.87,77.454 25.896,77.414C25.908,77.412 25.917,77.411 25.924,77.411L25.941,77.413C25.945,77.459 25.947,77.494 25.947,77.515C25.947,77.52 25.946,77.542 25.944,77.581L25.944,77.659L25.946,78.081L25.941,78.527C25.94,78.563 25.946,78.589 25.959,78.603C25.972,78.617 26.009,78.633 26.072,78.65C26.111,78.661 26.14,78.67 26.16,78.678C26.163,78.685 26.164,78.691 26.164,78.696C26.164,78.702 26.162,78.709 26.157,78.718C26.119,78.717 26.07,78.714 26.01,78.71C25.929,78.704 25.876,78.7 25.849,78.7C25.836,78.7 25.758,78.703 25.615,78.707C25.586,78.708 25.557,78.711 25.53,78.715C25.525,78.715 25.517,78.713 25.506,78.71C25.502,78.704 25.499,78.698 25.499,78.693C25.499,78.679 25.508,78.668 25.527,78.661C25.531,78.659 25.581,78.647 25.676,78.627C25.708,78.621 25.728,78.611 25.738,78.598C25.754,78.577 25.763,78.544 25.763,78.499C25.765,78.424 25.766,78.218 25.766,77.881C25.766,77.814 25.763,77.772 25.757,77.755C25.752,77.744 25.739,77.73 25.718,77.715C25.697,77.7 25.652,77.685 25.584,77.669Z" style="fill:rgb(60,60,60);fill-rule:nonzero;"/>
                <path d="M27.105,77.647L27.107,77.604L27.105,77.433L27.107,77.109C27.107,77.019 27.097,76.962 27.078,76.938C27.058,76.914 27.001,76.889 26.906,76.863C26.899,76.861 26.889,76.858 26.874,76.854L26.874,76.838C26.874,76.829 26.875,76.818 26.877,76.806C27.01,76.792 27.124,76.769 27.22,76.737L27.294,76.736C27.298,76.802 27.3,76.876 27.3,76.958L27.294,77.522L27.305,78.158L27.3,78.497C27.3,78.566 27.305,78.605 27.315,78.614C27.334,78.633 27.377,78.644 27.444,78.644C27.457,78.644 27.476,78.645 27.499,78.647L27.499,78.674C27.499,78.681 27.499,78.688 27.498,78.696C27.468,78.703 27.436,78.709 27.404,78.715L27.192,78.756C27.161,78.762 27.136,78.765 27.117,78.765L27.117,78.624C27.101,78.629 27.075,78.639 27.04,78.653C26.887,78.718 26.747,78.75 26.619,78.75C26.542,78.75 26.463,78.725 26.383,78.675C26.303,78.624 26.242,78.554 26.199,78.464C26.156,78.374 26.134,78.283 26.134,78.189C26.134,78.105 26.148,78.025 26.177,77.948C26.205,77.871 26.242,77.808 26.288,77.757C26.317,77.724 26.359,77.691 26.413,77.658C26.466,77.625 26.511,77.604 26.546,77.596C26.633,77.573 26.691,77.562 26.72,77.562C26.852,77.562 26.96,77.582 27.045,77.621C27.072,77.633 27.092,77.642 27.105,77.647ZM27.107,78.552C27.111,78.487 27.113,78.352 27.113,78.148C27.113,77.975 27.105,77.866 27.089,77.821C27.072,77.775 27.032,77.732 26.968,77.692C26.903,77.651 26.831,77.631 26.751,77.631C26.639,77.631 26.543,77.674 26.465,77.761C26.387,77.848 26.348,77.977 26.348,78.146C26.348,78.296 26.39,78.415 26.475,78.504C26.559,78.593 26.665,78.637 26.79,78.637C26.863,78.637 26.929,78.627 26.988,78.608C27.048,78.588 27.087,78.57 27.107,78.552Z" style="fill:rgb(60,60,60);fill-rule:nonzero;"/>
                <path d="M28.546,77.937L27.959,77.941L27.848,77.941C27.803,77.941 27.757,77.943 27.71,77.947C27.701,77.977 27.697,77.997 27.697,78.007L27.698,78.022L27.698,78.037L27.697,78.108C27.697,78.168 27.715,78.241 27.753,78.327C27.791,78.414 27.844,78.48 27.914,78.525C27.984,78.571 28.071,78.595 28.176,78.598C28.231,78.595 28.276,78.588 28.309,78.577C28.342,78.566 28.389,78.541 28.45,78.502L28.555,78.416L28.564,78.475C28.564,78.481 28.563,78.489 28.562,78.497C28.518,78.552 28.463,78.601 28.395,78.643C28.328,78.685 28.26,78.716 28.19,78.735C28.157,78.744 28.102,78.748 28.026,78.748C27.957,78.748 27.889,78.734 27.821,78.706C27.722,78.663 27.643,78.594 27.586,78.499C27.529,78.404 27.5,78.288 27.5,78.152C27.5,78.109 27.508,78.054 27.525,77.987C27.541,77.919 27.57,77.848 27.612,77.771C27.64,77.72 27.675,77.677 27.716,77.644C27.774,77.597 27.826,77.564 27.87,77.546C27.933,77.519 28.007,77.506 28.091,77.506C28.182,77.506 28.256,77.523 28.313,77.556C28.391,77.6 28.45,77.657 28.488,77.726C28.527,77.795 28.546,77.859 28.546,77.916L28.546,77.937ZM27.729,77.884L27.798,77.884C27.848,77.884 27.996,77.876 28.243,77.861C28.282,77.859 28.306,77.855 28.315,77.849C28.332,77.831 28.341,77.814 28.341,77.799C28.341,77.769 28.331,77.735 28.312,77.696C28.292,77.657 28.262,77.628 28.222,77.607C28.181,77.586 28.134,77.575 28.08,77.575C27.967,77.575 27.876,77.618 27.808,77.703C27.755,77.767 27.729,77.828 27.729,77.884Z" style="fill:rgb(60,60,60);fill-rule:nonzero;"/>
            </g>
            <g transform="matrix(1.12509,0,0,1.12509,-225.129,-5.6868)">
                <path d="M185.48,18.33L154.22,0.28C153.907,0.1 153.551,0.006 153.19,0.006C152.06,0.006 151.128,0.93 151.12,2.06L151.12,38.17C151.12,38.171 151.12,38.171 151.12,38.172C151.12,39.302 152.05,40.232 153.18,40.232C153.545,40.232 153.904,40.135 154.22,39.95L185.48,21.9C186.118,21.533 186.512,20.851 186.512,20.115C186.512,19.379 186.118,18.697 185.48,18.33ZM168.4,17.14L158.9,22.62C158.587,22.801 158.232,22.896 157.87,22.896C156.741,22.896 155.812,21.969 155.81,20.84L155.81,9.84C155.812,8.711 156.741,7.784 157.87,7.784C158.232,7.784 158.587,7.879 158.9,8.06L168.4,13.54C169.052,13.903 169.458,14.593 169.458,15.34C169.458,16.087 169.052,16.777 168.4,17.14Z" style="fill:rgb(252,0,255);fill-rule:nonzero;"/>
                <clipPath id="_clip1">
                    <path d="M185.48,18.33L154.22,0.28C153.907,0.1 153.551,0.006 153.19,0.006C152.06,0.006 151.128,0.93 151.12,2.06L151.12,38.17C151.12,38.171 151.12,38.171 151.12,38.172C151.12,39.302 152.05,40.232 153.18,40.232C153.545,40.232 153.904,40.135 154.22,39.95L185.48,21.9C186.118,21.533 186.512,20.851 186.512,20.115C186.512,19.379 186.118,18.697 185.48,18.33ZM168.4,17.14L158.9,22.62C158.587,22.801 158.232,22.896 157.87,22.896C156.741,22.896 155.812,21.969 155.81,20.84L155.81,9.84C155.812,8.711 156.741,7.784 157.87,7.784C158.232,7.784 158.587,7.879 158.9,8.06L168.4,13.54C169.052,13.903 169.458,14.593 169.458,15.34C169.458,16.087 169.052,16.777 168.4,17.14Z" clip-rule="nonzero"/>
                </clipPath>
                <g clip-path="url(#_clip1)">
                    <g transform="matrix(0.734049,0,0,0.734049,193.39,4.85528)">
                        <g transform="matrix(9.38115,5.41621,-5.41621,9.38115,345.324,-924.87)">
                            <rect x="10.212" y="90.142" width="1.038" height="6.536" style="fill:rgb(255,0,249);"/>
                        </g>
                        <g transform="matrix(9.38115,5.41621,-5.41621,9.38115,355.064,-919.247)">
                            <rect x="10.212" y="90.142" width="1.038" height="6.536" style="fill:rgb(216,7,231);"/>
                        </g>
                        <g transform="matrix(9.38115,5.41621,-5.41621,9.38115,364.804,-913.624)">
                            <rect x="10.212" y="90.142" width="1.038" height="6.536" style="fill:rgb(175,28,235);"/>
                        </g>
                        <g transform="matrix(9.38115,5.41621,-5.41621,9.38115,374.544,-908)">
                            <rect x="10.212" y="90.142" width="1.038" height="6.536" style="fill:rgb(111,66,244);"/>
                        </g>
                        <g transform="matrix(9.38115,5.41621,-5.41621,9.38115,384.284,-902.377)">
                            <rect x="10.212" y="90.142" width="1.038" height="6.536" style="fill:rgb(0,130,255);"/>
                        </g>
                    </g>
                </g>
            </g>
        </g>
    </g>
</svg>
